<svg xmlns="http://www.w3.org/2000/svg" width="202.667" height="202.667" preserveAspectRatio="xMidYMid meet" version="1.0" viewBox="0 0 152 152"><metadata>Created by potrace 1.14, written by Peter Selinger 2001-2017</metadata><g fill="#000" stroke="none"><path d="M141 1499 c-18 -4 -37 -12 -41 -19 -4 -6 -9 -10 -11 -9 -9 8 -47 -29 -65 -61 -17 -33 -19 -69 -19 -635 -1 -340 3 -616 8 -637 9 -35 69 -110 85 -106 4 1 23 -3 42 -9 22 -6 251 -9 630 -8 479 1 600 4 623 15 15 7 27 17 27 22 0 5 5 6 10 3 6 -3 10 1 10 10 0 9 4 14 8 11 9 -5 21 14 38 59 4 11 8 290 9 620 2 619 0 653 -38 677 -7 4 -8 8 -2 8 12 0 -65 53 -85 58 -27 8 -1194 8 -1229 1z m684 -233 c11 -2 27 -5 36 -5 9 -1 32 -12 52 -25 19 -13 38 -21 42 -18 4 4 6 2 4 -3 -3 -12 22 -65 30 -65 8 0 15 -71 14 -150 -1 -85 -5 -120 -16 -120 -4 0 -6 -4 -3 -9 3 -5 -1 -14 -9 -21 -8 -7 -13 -15 -11 -19 3 -7 -31 -41 -41 -40 -4 0 -9 -4 -11 -10 -2 -6 3 -11 12 -11 9 0 16 -4 16 -9 0 -5 9 -13 20 -16 11 -4 18 -10 15 -15 -3 -4 2 -13 9 -19 43 -36 54 -319 14 -368 -6 -7 -7 -13 -4 -13 4 0 -9 -15 -28 -34 -19 -19 -32 -37 -30 -40 2 -3 1 -4 -3 -1 -3 3 -15 -3 -26 -12 -10 -10 -22 -17 -26 -15 -3 1 -26 -1 -51 -4 -25 -4 -108 -8 -185 -8 l-140 -1 0 530 0 530 150 -2 c83 -1 159 -4 170 -7z" transform="translate(0.000000,152.000000) scale(0.100000,-0.100000)"/><path d="M679 1112 c0 -4 -1 -65 -2 -137 l0 -130 42 2 c63 2 113 26 99 46 -2 2 2 10 8 18 6 8 10 46 8 88 -3 94 -19 113 -98 117 -31 1 -56 -1 -57 -4z" transform="translate(0.000000,152.000000) scale(0.100000,-0.100000)"/><path d="M679 683 c0 -5 -1 -76 -2 -160 l-2 -152 67 3 c97 5 108 20 109 156 1 98 -15 143 -53 154 -32 8 -118 7 -119 -1z" transform="translate(0.000000,152.000000) scale(0.100000,-0.100000)"/></g></svg>